<svg width="33" height="34" viewBox="0 0 33 34" fill="none" xmlns="http://www.w3.org/2000/svg">
<path d="M27.1029 10.0212C28.7968 12.2843 29.8132 15.103 29.8132 18.152C29.8132 25.6324 23.7422 31.7035 16.2618 31.7035C8.78137 31.7035 2.71033 25.6324 2.71033 18.152C2.71033 10.6716 8.78137 4.60061 16.2618 4.60061M16.2618 1.89032V18.152L29.2711 8.39501C26.3034 4.45154 21.5739 1.89032 16.2618 1.89032Z" fill="#3FAEA8"/>
<path d="M27.1029 10.0212C28.7968 12.2843 29.8132 15.103 29.8132 18.152C29.8132 25.6324 23.7422 31.7035 16.2618 31.7035C8.78137 31.7035 2.71033 25.6324 2.71033 18.152C2.71033 10.6716 8.78137 4.60061 16.2618 4.60061M16.2618 1.89032V18.152L29.2711 8.39501C26.3034 4.45154 21.5739 1.89032 16.2618 1.89032Z" stroke="black" stroke-width="1.41406"/>
</svg>
