<svg width="28" height="28" viewBox="0 0 28 28" fill="none" xmlns="http://www.w3.org/2000/svg">
<g clip-path="url(#clip0_43_245)">
<path fill-rule="evenodd" clip-rule="evenodd" d="M1.65171 27.8715H25.8769C26.3149 27.8715 26.735 27.6974 27.0448 27.3877C27.3545 27.0779 27.5286 26.6578 27.5286 26.2198V1.99461C27.5286 1.55655 27.3545 1.13643 27.0448 0.826671C26.735 0.516915 26.3149 0.342896 25.8769 0.342896L1.65171 0.342896C1.21365 0.342896 0.793532 0.516915 0.483776 0.826671C0.174019 1.13643 0 1.55655 0 1.99461L0 26.2198C0 26.6578 0.174019 27.0779 0.483776 27.3877C0.793532 27.6974 1.21365 27.8715 1.65171 27.8715Z" fill="#7AB3FF"/>
<path fill-rule="evenodd" clip-rule="evenodd" d="M27.5286 8.60147H27.5217C27.4874 8.22541 27.3137 7.87575 27.0349 7.6211C26.7561 7.36645 26.3921 7.22519 26.0145 7.22504H1.72054C0.808514 7.22504 0 6.48562 0 5.57332V1.99461C0 1.55655 0.174019 1.13643 0.483776 0.826671C0.793532 0.516915 1.21365 0.342896 1.65171 0.342896L25.8769 0.342896C26.7889 0.342896 27.5286 1.08259 27.5286 1.99488V8.60147Z" fill="#287DB4"/>
<path opacity="0.15" fill-rule="evenodd" clip-rule="evenodd" d="M1.37646 27.8715H1.92704V0.342896H1.37646V27.8715Z" fill="black"/>
<path opacity="0.15" fill-rule="evenodd" clip-rule="evenodd" d="M1.927 27.8715H2.47757V0.342896H1.927V27.8715Z" fill="white"/>
<path fill-rule="evenodd" clip-rule="evenodd" d="M27.5286 3.09603C27.5286 2.73098 27.3836 2.38088 27.1255 2.12275C26.8673 1.86462 26.5172 1.7196 26.1522 1.7196H1.92704C1.78102 1.7196 1.64098 1.77761 1.53772 1.88086C1.43447 1.98412 1.37646 2.12416 1.37646 2.27018V5.29832C1.37646 5.44434 1.43447 5.58438 1.53772 5.68763C1.64098 5.79088 1.78102 5.84889 1.92704 5.84889H25.8769C26.315 5.84889 26.7351 6.02291 27.0448 6.33267C27.3546 6.64242 27.5286 7.06254 27.5286 7.5006V3.37132H27.5008C27.519 3.2824 27.5286 3.19018 27.5286 3.09603Z" fill="white"/>
<path opacity="0.2" fill-rule="evenodd" clip-rule="evenodd" d="M27.5286 4.58862V3.50922C27.5286 3.50922 27.579 2.40808 26.1522 2.40808H1.37646V2.95865H25.8769C26.2964 2.95886 26.7001 3.11881 27.0058 3.40599C27.3116 3.69316 27.4966 4.086 27.5231 4.50466C27.4936 4.22937 27.3059 3.5095 26.1522 3.5095H1.37646V4.06007H25.8769C26.2964 4.06028 26.7001 4.22023 27.0058 4.5074C27.3116 4.79458 27.4966 5.18742 27.5231 5.60607C27.4936 5.33051 27.3059 4.61064 26.1522 4.61064H1.37646V5.16121H25.8769C26.315 5.16121 26.7351 5.33523 27.0448 5.64499C27.3546 5.95475 27.5286 6.37487 27.5286 6.81293V4.58862Z" fill="#95A5A6"/>
<path fill-rule="evenodd" clip-rule="evenodd" d="M22.0229 27.8715H24.7758V7.22504H22.0229V27.8715Z" fill="#2980B9"/>
<path fill-rule="evenodd" clip-rule="evenodd" d="M22.0229 7.22696H24.7758V0.342896H22.0229V7.22696Z" fill="#3498DB"/>
<path opacity="0.1" fill-rule="evenodd" clip-rule="evenodd" d="M22.5734 27.8715H23.1239V0.342896H22.5734V27.8715ZM23.6745 0.342896V27.8715H24.2251V0.342896H23.6745Z" fill="black"/>
</g>
<defs>
<clipPath id="clip0_43_245">
<rect width="27.5286" height="27.5286" fill="white" transform="translate(0 0.342896)"/>
</clipPath>
</defs>
</svg>
