<svg width="34" height="41" viewBox="0 0 34 41" fill="none" xmlns="http://www.w3.org/2000/svg">
<g clip-path="url(#clip0_43_235)">
<path d="M12.5684 8.45538H9.77539C9.03465 8.45538 8.32425 8.81172 7.80046 9.44599C7.27668 10.0803 6.98242 10.9405 6.98242 11.8375V32.1305C6.98242 33.0275 7.27668 33.8877 7.80046 34.522C8.32425 35.1563 9.03465 35.5126 9.77539 35.5126H23.7402C24.481 35.5126 25.1914 35.1563 25.7152 34.522C26.239 33.8877 26.5332 33.0275 26.5332 32.1305V11.8375C26.5332 10.9405 26.239 10.0803 25.7152 9.44599C25.1914 8.81172 24.481 8.45538 23.7402 8.45538H20.9473" fill="#C7DBEE"/>
<path d="M12.5684 8.45538H9.77539C9.03465 8.45538 8.32425 8.81172 7.80046 9.44599C7.27668 10.0803 6.98242 10.9405 6.98242 11.8375V32.1305C6.98242 33.0275 7.27668 33.8877 7.80046 34.522C8.32425 35.1563 9.03465 35.5126 9.77539 35.5126H23.7402C24.481 35.5126 25.1914 35.1563 25.7152 34.522C26.239 33.8877 26.5332 33.0275 26.5332 32.1305V11.8375C26.5332 10.9405 26.239 10.0803 25.7152 9.44599C25.1914 8.81172 24.481 8.45538 23.7402 8.45538H20.9473" stroke="black" stroke-width="1.41413" stroke-linecap="round" stroke-linejoin="round"/>
<path d="M18.1543 5.07324H15.3613C13.8188 5.07324 12.5684 6.58749 12.5684 8.4554C12.5684 10.3233 13.8188 11.8376 15.3613 11.8376H18.1543C19.6968 11.8376 20.9473 10.3233 20.9473 8.4554C20.9473 6.58749 19.6968 5.07324 18.1543 5.07324Z" stroke="black" stroke-width="1.41413" stroke-linecap="round" stroke-linejoin="round"/>
<path d="M19.5508 18.6019H16.0596C15.504 18.6019 14.9712 18.8691 14.5784 19.3448C14.1855 19.8205 13.9648 20.4657 13.9648 21.1385C13.9648 21.8112 14.1855 22.4564 14.5784 22.9321C14.9712 23.4079 15.504 23.6751 16.0596 23.6751H17.4561C18.0116 23.6751 18.5444 23.9424 18.9373 24.4181C19.3301 24.8938 19.5508 25.539 19.5508 26.2117C19.5508 26.8845 19.3301 27.5297 18.9373 28.0054C18.5444 28.4811 18.0116 28.7483 17.4561 28.7483H13.9648" stroke="black" stroke-width="1.41413" stroke-linecap="round" stroke-linejoin="round"/>
<path d="M16.7578 28.7483V30.4394M16.7578 16.9108V18.6018" stroke="black" stroke-width="1.41413" stroke-linecap="round" stroke-linejoin="round"/>
</g>
<defs>
<clipPath id="clip0_43_235">
<rect width="33.5156" height="40.5859" fill="white"/>
</clipPath>
</defs>
</svg>
